<?xml version="1.0" standalone="no"?>
<!DOCTYPE svg PUBLIC "-//W3C//DTD SVG 20010904//EN"
 "http://www.w3.org/TR/2001/REC-SVG-20010904/DTD/svg10.dtd">
<svg version="1.0" xmlns="http://www.w3.org/2000/svg"
 width="1000.000000pt" height="1012.000000pt" viewBox="0 0 1000.000000 1012.000000"
 preserveAspectRatio="xMidYMid meet">

<g transform="translate(0.000000,1012.000000) scale(0.100000,-0.100000)"
fill="#fff" stroke="none">
<path d="M0 8050 l0 -2030 60 0 60 0 2 1968 3 1967 4875 0 4875 0 3 -1967 2
-1968 60 0 60 0 0 2030 0 2030 -5000 0 -5000 0 0 -2030z"/>
<path d="M7790 5225 l0 -545 90 0 90 0 0 545 0 545 -90 0 -90 0 0 -545z"/>
<path d="M9820 5690 l0 -80 90 0 90 0 0 80 0 80 -90 0 -90 0 0 -80z"/>
<path d="M45 5688 c-46 -24 -45 -19 -45 -494 0 -249 3 -460 6 -469 16 -40 50
-45 343 -45 169 0 301 4 333 11 147 31 265 137 308 276 29 94 29 352 0 445
-43 141 -159 245 -308 277 -71 15 -609 15 -637 -1z m605 -179 c64 -14 114 -51
147 -106 28 -47 28 -50 28 -213 0 -163 0 -166 -28 -213 -33 -55 -83 -92 -147
-106 -25 -6 -141 -11 -257 -11 l-213 0 0 330 0 330 213 0 c116 0 232 -5 257
-11z"/>
<path d="M6280 5575 l0 -125 -120 0 -120 0 0 -90 0 -89 118 -3 117 -3 3 -292
2 -293 90 0 90 0 2 293 3 292 163 3 162 2 0 90 0 90 -165 0 -165 0 0 125 0
125 -90 0 -90 0 0 -125z"/>
<path d="M1334 5432 c-88 -31 -143 -89 -164 -174 -7 -28 -10 -112 -8 -219 3
-164 5 -178 28 -224 28 -55 95 -107 158 -125 60 -16 429 -13 488 5 66 19 121
67 150 129 22 48 24 63 24 232 0 213 -10 254 -76 320 -64 65 -108 74 -348 74
-165 -1 -210 -4 -252 -18z m477 -191 c17 -21 19 -41 19 -176 0 -215 18 -200
-244 -200 -184 0 -207 2 -223 18 -15 15 -18 40 -21 163 -4 162 4 197 47 213
15 6 106 9 214 8 185 -2 189 -2 208 -26z"/>
<path d="M2221 5436 c-49 -28 -50 -37 -51 -408 l0 -348 90 0 90 0 2 293 3 292
110 3 c61 2 124 0 142 -3 64 -12 63 -8 63 -311 l0 -274 96 0 95 0 -3 296 -3
296 97 -4 c147 -6 138 16 138 -315 l0 -273 90 0 90 0 0 290 c0 274 -1 293 -21
335 -12 25 -37 59 -57 76 -62 55 -92 63 -264 67 l-158 4 0 -26 c0 -32 -2 -32
-59 -3 -43 20 -61 22 -256 25 -163 1 -215 -1 -234 -12z"/>
<path d="M3580 5361 l0 -91 223 0 c285 0 262 18 262 -206 0 -224 17 -209 -246
-209 l-201 0 -24 28 c-29 34 -31 66 -3 101 l20 26 185 0 184 0 0 91 0 91 -202
-4 c-174 -3 -208 -6 -238 -22 -83 -43 -129 -113 -137 -208 -8 -84 11 -142 66
-199 71 -73 112 -81 378 -77 203 3 221 5 260 25 54 29 100 86 118 147 18 59
21 359 5 418 -16 56 -69 118 -125 147 -49 25 -55 26 -287 29 l-238 4 0 -91z"/>
<path d="M4595 5441 c-44 -11 -107 -46 -132 -73 -12 -12 -31 -43 -42 -68 -19
-42 -21 -65 -21 -332 l0 -288 90 0 90 0 0 269 c0 250 1 270 19 292 19 24 22
24 245 27 l226 3 0 90 0 89 -222 -1 c-123 -1 -236 -4 -253 -8z"/>
<path d="M5270 5361 l0 -91 223 0 c285 0 262 18 262 -206 0 -224 17 -209 -246
-209 l-201 0 -24 28 c-29 34 -31 66 -3 101 l20 26 185 0 184 0 0 91 0 91 -202
-4 c-174 -3 -208 -6 -238 -22 -83 -43 -129 -113 -137 -208 -8 -84 11 -142 66
-199 71 -73 112 -81 378 -77 203 3 221 5 260 25 54 29 100 86 118 147 20 66
20 374 1 429 -21 58 -62 105 -119 135 -52 27 -53 27 -289 30 l-238 4 0 -91z"/>
<path d="M7029 5434 c-139 -42 -190 -229 -94 -342 60 -69 84 -75 308 -80 187
-4 198 -5 212 -25 21 -29 19 -70 -4 -98 l-19 -24 -271 -3 -271 -3 0 -89 0 -90
268 0 c299 0 339 6 406 62 135 111 106 352 -51 430 -44 21 -64 23 -243 28
l-195 5 -3 26 c-2 20 2 28 20 33 13 3 123 6 246 6 l222 0 0 90 0 90 -242 -1
c-180 0 -255 -4 -289 -15z"/>
<path d="M8211 5304 c-153 -124 -181 -151 -187 -179 -3 -20 -1 -42 8 -57 7
-13 98 -106 201 -206 l188 -182 132 0 132 0 -212 206 c-117 113 -213 209 -213
214 0 6 257 217 409 337 13 10 -13 12 -130 13 l-147 0 -181 -146z"/>
<path d="M8790 5173 c0 -161 4 -294 10 -315 16 -56 69 -119 125 -147 47 -25
57 -26 252 -29 l203 -3 0 90 0 90 -185 3 c-161 3 -187 5 -202 21 -16 16 -18
45 -21 292 l-3 275 -89 0 -90 0 0 -277z"/>
<path d="M9460 5016 c0 -423 0 -434 -21 -460 l-20 -26 -185 0 -184 0 0 -90 0
-90 198 0 c186 0 200 2 248 24 62 29 118 93 133 151 7 29 11 196 11 484 l0
441 -90 0 -90 0 0 -434z"/>
<path d="M9820 5065 l0 -385 90 0 90 0 0 385 0 385 -90 0 -90 0 0 -385z"/>
<path d="M0 2070 l0 -2030 5000 0 5000 0 0 2030 0 2030 -60 0 -60 0 -2 -1967
-3 -1968 -4875 0 -4875 0 -3 1968 -2 1967 -60 0 -60 0 0 -2030z"/>
</g>
</svg>
